# xmcd
#
# Track frame offsets: 
#        150
#        11046
#        19851
#        36590
#        48576
#        65300
#        78317
#        88497
#        104870
#        118534
#        134003
#        153261
#        173039
#        190651
#        215230
#        229000
#        244173
#
# Disc length: 3404 seconds
#
# Revision: 0
# Processed by: cddbd v1.5.2PL0 Copyright (c) Steve Scherf et al.
# Submitted via: ExactAudioCopy v0.95a4
#
DISCID=f60d4a11
DTITLE=Judy Coder and Pride of the Prairie - Singin' Down the Road
DYEAR=2007
DGENRE=Country
TTITLE0=Lose Your Blues and Laugh at Life
TTITLE1=Singin' Down the Road
TTITLE2=The Wayward Wind
TTITLE3=Diamond Joe
TTITLE4=Colors
TTITLE5=Rawhide
TTITLE6=Yodel Blues
TTITLE7=My Heart Lives in Old Santa Fe
TTITLE8=Marathon Yodel
TTITLE9=Home on the Range
TTITLE10=Santa Fe Trail
TTITLE11=Wyoming On My Mind
TTITLE12=Come Back to Old Santa Fe
TTITLE13=Night Rider's Lament
TTITLE14=Sure Looks Like Rain
TTITLE15=Blue Shadows on the Trial
TTITLE16='Way Out There
EXTD=
EXTT0=
EXTT1=
EXTT2=
EXTT3=
EXTT4=
EXTT5=
EXTT6=
EXTT7=
EXTT8=
EXTT9=
EXTT10=
EXTT11=
EXTT12=
EXTT13=
EXTT14=
EXTT15=
EXTT16=
PLAYORDER=
